<svg width="12" height="11" viewBox="0 0 12 11" fill="none" xmlns="http://www.w3.org/2000/svg">
<path d="M11.1671 0.246641L5.99947 9.01351L0.831869 0.246641C0.739544 0.0896762 0.6156 0.00179931 0.486534 0.00179931C0.357469 0.00179931 0.233525 0.0896762 0.141201 0.246641C0.0964956 0.322873 0.06098 0.413862 0.0367343 0.514282C0.0124885 0.614702 0 0.722533 0 0.831458C0 0.940383 0.0124885 1.04821 0.0367343 1.14863C0.06098 1.24905 0.0964956 1.34004 0.141201 1.41628L5.63863 10.7446C5.73517 10.9083 5.86465 11 5.99947 11C6.13429 11 6.26377 10.9083 6.36031 10.7446L11.8577 1.41808C11.9028 1.34179 11.9385 1.25057 11.963 1.14982C11.9874 1.04907 12 0.940817 12 0.831458C12 0.722099 11.9874 0.613848 11.963 0.513096C11.9385 0.412343 11.9028 0.32113 11.8577 0.244841C11.7654 0.087876 11.6415 0 11.5124 0C11.3833 0 11.2594 0.087876 11.1671 0.244841V0.246641Z" fill="#303030" fill-opacity="0.8"/>
</svg>
